<svg xmlns="http://www.w3.org/2000/svg" height="19" width="19"><g fill="none"><path fill="#4285F4" d="M18.33 9.744c0-.65-.058-1.274-.167-1.874H9.536v3.544h4.93a4.214 4.214 0 0 1-1.828 2.765v2.298h2.96c1.733-1.595 2.732-3.943 2.732-6.733z"/><path fill="#34A853" d="M9.536 18.696c2.473 0 4.547-.82 6.062-2.219l-2.96-2.298c-.82.55-1.87.874-3.102.874-2.386 0-4.406-1.611-5.126-3.777H1.35v2.374a9.157 9.157 0 0 0 8.186 5.046z"/><path fill="#FBBC05" d="M4.41 11.276a5.507 5.507 0 0 1-.287-1.74c0-.604.104-1.191.287-1.74V5.421H1.35a9.157 9.157 0 0 0-.975 4.114c0 1.478.354 2.877.974 4.114l3.06-2.374z"/><path fill="#EA4335" d="M9.536 4.018c1.345 0 2.552.463 3.502 1.37l2.627-2.627C14.08 1.283 12.005.375 9.535.375A9.157 9.157 0 0 0 1.35 5.422l3.06 2.373c.72-2.165 2.74-3.777 5.127-3.777z"/><path d="M.375.375h18.321v18.321H.375z"/></g></svg>