<svg xmlns="http://www.w3.org/2000/svg" viewBox="0 0 18 12" height="12" width="18"><path fill="#f93" d="M0 0h18v12H0z"/><path fill="#fff" d="M0 4h18v4H0z"/><path fill="#128706" d="M0 8h18v4H0z"/><path fill="#000087" d="M10.602 6c0 .883-.719 1.602-1.602 1.602S7.4 6.882 7.4 6 8.118 4.398 9 4.398s1.602.72 1.602 1.602z"/><path fill="#fff" d="M10.398 6A1.397 1.397 0 1 1 9 4.602c.773 0 1.398.625 1.398 1.398z"/><path fill="#000087" d="M9.281 6c0 .156-.125.281-.281.281S8.719 6.156 8.719 6s.125-.281.281-.281.281.125.281.281zM10.457 6.191a.07.07 0 0 1-.078.063c-.04-.008-.067-.043-.059-.082.004-.035.04-.063.078-.059.036.004.063.04.059.078z"/><path fill="#000087" d="m9 7.398.047-.84L9 6.16l-.047.399zM10.359 6.563c-.016.035-.059.05-.094.039a.072.072 0 0 1-.035-.094c.012-.035.055-.051.09-.035.035.011.05.054.039.09zM8.637 7.352l.265-.797.055-.399-.148.371zM10.168 6.894c-.023.032-.07.036-.102.012a.072.072 0 0 1-.011-.097c.023-.032.066-.036.097-.012s.04.066.016.098zM8.3 7.21l.462-.702.16-.371-.242.324zM9.895 7.168c-.032.023-.075.016-.098-.016s-.02-.074.012-.097a.072.072 0 0 1 .097.011c.024.032.02.079-.012.102zM8.012 6.988l.625-.558.25-.317-.317.25zM9.563 7.36c-.036.011-.079-.005-.09-.04-.016-.035 0-.078.035-.09a.072.072 0 0 1 .094.036c.011.035-.004.078-.04.093zM7.79 6.7l.75-.38.323-.242-.37.16zM9.191 7.457c-.039.004-.074-.023-.078-.059-.004-.039.024-.074.059-.078.039-.008.074.02.082.059a.07.07 0 0 1-.063.078zM7.648 6.363l.825-.172.37-.148-.398.055zM8.809 7.457a.07.07 0 0 1-.063-.078c.008-.04.043-.067.082-.059.035.004.063.04.059.078-.004.036-.04.063-.078.059zM7.602 6l.84.047L8.84 6l-.399-.047zM8.438 7.36c-.036-.016-.051-.06-.04-.094a.072.072 0 0 1 .094-.036c.035.012.051.055.035.09-.011.035-.054.051-.09.04zM7.648 5.637l.797.265.399.055-.371-.148zM8.105 7.168c-.03-.023-.035-.07-.011-.102a.072.072 0 0 1 .097-.011c.032.023.036.066.012.097s-.066.04-.097.016zM7.79 5.3l.702.462.371.16-.324-.242zM7.832 6.894c-.023-.03-.016-.074.016-.097s.074-.02.097.012a.072.072 0 0 1-.011.097c-.032.024-.079.02-.102-.011zM8.012 5.012l.558.625.317.25-.25-.317zM7.64 6.563c-.011-.036.005-.079.04-.09.035-.016.078 0 .09.035a.072.072 0 0 1-.036.094c-.035.011-.078-.004-.093-.04zM8.3 4.79l.38.75.242.323-.16-.37zM7.543 6.191c-.004-.039.023-.074.059-.078.039-.004.074.024.078.059.008.039-.02.074-.059.082a.07.07 0 0 1-.078-.063zM8.637 4.648l.172.825.148.37-.055-.398zM7.543 5.809a.07.07 0 0 1 .078-.063c.04.008.067.043.059.082-.004.035-.04.063-.078.059-.036-.004-.063-.04-.059-.078zM9 4.602l-.047.84L9 5.84l.047-.399zM7.64 5.438c.016-.036.06-.051.094-.04.036.016.051.059.036.094-.012.035-.055.051-.09.035-.035-.011-.051-.054-.04-.09zM9.363 4.648l-.265.797-.055.399.148-.371zM7.832 5.106c.023-.032.07-.036.102-.012a.072.072 0 0 1 .011.097c-.023.032-.066.036-.097.012s-.04-.066-.016-.098zM9.7 4.79l-.462.702-.16.371.242-.324zM8.105 4.832c.032-.023.075-.016.098.016s.02.074-.012.097a.072.072 0 0 1-.097-.011c-.024-.032-.02-.079.012-.102zM9.988 5.012l-.625.558-.25.317.317-.25zM8.438 4.64c.035-.011.078.005.09.04.015.035 0 .078-.036.09a.072.072 0 0 1-.094-.036c-.011-.035.004-.078.04-.093zM10.211 5.3l-.75.38-.324.242.37-.16zM8.809 4.543c.039-.004.074.023.078.059.004.039-.024.074-.059.078-.039.008-.074-.02-.082-.059a.07.07 0 0 1 .063-.078zM10.352 5.637l-.824.172-.371.148.398-.055zM9.191 4.543a.07.07 0 0 1 .063.078c-.008.04-.043.067-.082.059-.035-.004-.063-.04-.059-.078.004-.036.04-.063.078-.059zM10.398 6l-.84-.047L9.16 6l.398.047zM9.563 4.64c.035.016.05.06.039.094a.072.072 0 0 1-.094.036c-.035-.012-.051-.055-.035-.09.011-.035.054-.051.09-.04zM10.352 6.363l-.797-.265-.398-.055.37.148zM9.895 4.832c.03.023.035.07.011.102a.072.072 0 0 1-.097.011c-.032-.023-.036-.066-.012-.097s.066-.04.097-.016zM10.211 6.7l-.703-.462-.371-.16.324.242zM10.168 5.106c.023.03.016.074-.016.097s-.074.02-.097-.012a.072.072 0 0 1 .011-.097c.032-.024.079-.02.102.011zM9.988 6.988l-.558-.625-.317-.25.25.317zM10.359 5.438c.012.035-.004.078-.04.09-.034.015-.077 0-.089-.036a.072.072 0 0 1 .035-.094c.035-.011.078.004.094.04zM9.7 7.21l-.38-.75-.242-.323.16.37zM10.457 5.809c.004.039-.023.074-.059.078-.039.004-.074-.024-.078-.059-.008-.039.02-.074.059-.082a.07.07 0 0 1 .078.063zM9.363 7.352l-.172-.825-.148-.37.055.398z"/></svg>